<?xml version="1.0" encoding="UTF-8"?>
<svg id="uuid-a0f94a24-3594-4258-826b-e8d389834bdc" data-name="Layer 2" xmlns="http://www.w3.org/2000/svg" viewBox="0 0 32 32">
  <defs>
    <style>
      .uuid-439912da-4c71-430a-9401-002cdc8e62b3 {
        fill: none;
      }

      .uuid-439912da-4c71-430a-9401-002cdc8e62b3, .uuid-48623fde-4fb3-4269-95ec-3bd0de6536de, .uuid-343cbdaa-45d3-48e2-8899-ae2ba7c4ddd1, .uuid-173772d0-1eea-432d-bff4-a35e08fd5c5f, .uuid-3a5c83fc-448e-4a08-9940-0065a1e263e8 {
        stroke-width: 0px;
      }

      .uuid-48623fde-4fb3-4269-95ec-3bd0de6536de {
        fill: #1b1b1b;
      }

      .uuid-343cbdaa-45d3-48e2-8899-ae2ba7c4ddd1 {
        fill: #e0bd90;
      }

      .uuid-173772d0-1eea-432d-bff4-a35e08fd5c5f {
        fill: #8c8e8f;
      }

      .uuid-3a5c83fc-448e-4a08-9940-0065a1e263e8 {
        fill: #e3af1b;
      }
    </style>
  </defs>
  <g id="uuid-788d3bb5-f33f-4dba-bd5a-9f62e09b38f4" data-name="Layer 2">
    <rect class="uuid-48623fde-4fb3-4269-95ec-3bd0de6536de" x="4" y="24" width="2" height="7" transform="translate(10 55) rotate(180)"/>
    <rect class="uuid-48623fde-4fb3-4269-95ec-3bd0de6536de" x="4" y="18" width="8" height="6" transform="translate(16 42) rotate(180)"/>
    <rect class="uuid-48623fde-4fb3-4269-95ec-3bd0de6536de" x="10" y="24" width="2" height="7" transform="translate(22 55) rotate(180)"/>
    <rect class="uuid-343cbdaa-45d3-48e2-8899-ae2ba7c4ddd1" x="5" y="4" width="6" height="6"/>
    <rect class="uuid-48623fde-4fb3-4269-95ec-3bd0de6536de" x="3" y="2" width="3" height="5"/>
    <rect class="uuid-48623fde-4fb3-4269-95ec-3bd0de6536de" x="4" y="1" width="9" height="3"/>
    <rect class="uuid-343cbdaa-45d3-48e2-8899-ae2ba7c4ddd1" x="9" y="4" width="4" height="4"/>
    <rect class="uuid-173772d0-1eea-432d-bff4-a35e08fd5c5f" x="11" y="5" width="1" height="1"/>
    <rect class="uuid-343cbdaa-45d3-48e2-8899-ae2ba7c4ddd1" x="20" y="4" width="6" height="6"/>
    <rect class="uuid-48623fde-4fb3-4269-95ec-3bd0de6536de" x="18" y="2" width="3" height="5"/>
    <rect class="uuid-48623fde-4fb3-4269-95ec-3bd0de6536de" x="19" y="1" width="9" height="3"/>
    <rect class="uuid-343cbdaa-45d3-48e2-8899-ae2ba7c4ddd1" x="24" y="4" width="4" height="4"/>
    <rect class="uuid-173772d0-1eea-432d-bff4-a35e08fd5c5f" x="26" y="5" width="1" height="1"/>
    <rect class="uuid-3a5c83fc-448e-4a08-9940-0065a1e263e8" x="2" y="16" width="10" height="2"/>
    <rect class="uuid-3a5c83fc-448e-4a08-9940-0065a1e263e8" x="2" y="13" width="10" height="3"/>
    <rect class="uuid-3a5c83fc-448e-4a08-9940-0065a1e263e8" x="3" y="10" width="7" height="3"/>
    <rect class="uuid-3a5c83fc-448e-4a08-9940-0065a1e263e8" x="12" y="11" width="2" height="2"/>
    <rect class="uuid-3a5c83fc-448e-4a08-9940-0065a1e263e8" x="14" y="9" width="2" height="2"/>
    <rect class="uuid-343cbdaa-45d3-48e2-8899-ae2ba7c4ddd1" x="2" y="18" width="2" height="2"/>
    <rect class="uuid-48623fde-4fb3-4269-95ec-3bd0de6536de" x="19" y="24" width="2" height="7" transform="translate(40 55) rotate(180)"/>
    <rect class="uuid-48623fde-4fb3-4269-95ec-3bd0de6536de" x="19" y="18" width="8" height="6" transform="translate(46 42) rotate(180)"/>
    <rect class="uuid-48623fde-4fb3-4269-95ec-3bd0de6536de" x="25" y="24" width="2" height="7" transform="translate(52 55) rotate(180)"/>
    <rect class="uuid-3a5c83fc-448e-4a08-9940-0065a1e263e8" x="17" y="16" width="10" height="2"/>
    <rect class="uuid-3a5c83fc-448e-4a08-9940-0065a1e263e8" x="17" y="13" width="10" height="3"/>
    <rect class="uuid-3a5c83fc-448e-4a08-9940-0065a1e263e8" x="18" y="10" width="7" height="3"/>
    <rect class="uuid-3a5c83fc-448e-4a08-9940-0065a1e263e8" x="27" y="11" width="2" height="2"/>
    <rect class="uuid-3a5c83fc-448e-4a08-9940-0065a1e263e8" x="29" y="9" width="2" height="2"/>
    <rect class="uuid-343cbdaa-45d3-48e2-8899-ae2ba7c4ddd1" x="17" y="18" width="2" height="2"/>
    <rect class="uuid-439912da-4c71-430a-9401-002cdc8e62b3" width="32" height="32"/>
  </g>
</svg>